Source: Garden State 2004 DVDRip XviD AC3-FLAWL3SS  Thanks Flawless!

Enjoy and please help seed.

Encoded for PSP, iPod, and Zune.

Movie Nfo - - - Genre: Comedy | Drama | Romance 
Plot: A quietly troubled young man returns home for his mother\'s 
funeral after being estranged from his family for a decade. 

Video Specs: 
Format                           : MPEG-4
Codec ID                         : M4V 
File size                        : 444 MiB
Duration                         : 1h 38mn
Overall bit rate                 : 633 Kbps
Movie name                       : Garden State
Encoded date                     : 2010
Writing application              : Lavf52.33.0

Video
ID                               : 1
Format                           : AVC
Format/Info                      : Advanced Video Codec
Format profile                   : Baseline@L1.3
Format settings, CABAC           : No
Format settings, ReFrames        : 1 frame
Codec ID                         : avc1
Codec ID/Info                    : Advanced Video Coding
Duration                         : 1h 38mn
Bit rate mode                    : Variable
Bit rate                         : 500 Kbps
Width                            : 320 pixels
Height                           : 240 pixels
Display aspect ratio             : 4:3
Frame rate mode                  : Constant
Frame rate                       : 29.970 fps
Color space                      : YUV
Chroma subsampling               : 4:2:0
Bit depth                        : 8 bits
Scan type                        : Progressive
Bits/(Pixel*Frame)               : 0.217
Stream size                      : 351 MiB (79%)

Audio
ID                               : 2
Format                           : AAC
Format/Info                      : Advanced Audio Codec
Format version                   : Version 4
Format profile                   : LC
Format settings, SBR             : No
Codec ID                         : 40
Duration                         : 1h 38mn
Bit rate mode                    : Variable
Bit rate                         : 128 Kbps
Channel(s)                       : 2 channels
Channel positions                : Front: L R
Sampling rate                    : 48.0 KHz
Stream size                      : 89.6 MiB (20%)

